<?xml version="1.0" standalone="no"?>
<!DOCTYPE svg PUBLIC "-//W3C//DTD SVG 20010904//EN"
 "http://www.w3.org/TR/2001/REC-SVG-20010904/DTD/svg10.dtd">
<svg version="1.0" xmlns="http://www.w3.org/2000/svg" viewBox="0 0 395.000000 632.000000"
 preserveAspectRatio="xMidYMid meet">

<g transform="translate(0.000000,632.000000) scale(0.100000,-0.100000)" stroke="none">
<path d="M2343 6118 c-11 -13 -25 -36 -30 -52 -7 -24 -19 -33 -60 -46 -125
-41 -261 -160 -320 -280 -34 -70 -73 -198 -73 -241 0 -19 -14 -42 -45 -73 -76
-78 -112 -176 -99 -265 5 -35 15 -54 45 -83 l38 -36 -28 -44 c-45 -70 -60 -79
-106 -67 -50 14 -115 5 -180 -25 l-52 -23 -40 43 c-124 130 -265 108 -377 -60
-33 -50 -38 -53 -87 -59 -105 -13 -216 -92 -294 -210 -30 -45 -43 -57 -64 -57
-42 0 -128 -46 -173 -93 -84 -86 -135 -224 -163 -434 -33 -250 28 -365 255
-483 52 -26 111 -65 130 -85 43 -45 112 -89 165 -105 54 -17 60 -24 57 -68 -6
-80 -24 -142 -53 -178 -42 -54 -41 -114 4 -157 18 -18 41 -37 51 -42 17 -10
17 -22 6 -245 -14 -302 -35 -553 -55 -657 -52 -276 -195 -612 -386 -912 -37
-59 -61 -84 -115 -120 -78 -52 -137 -124 -154 -187 -35 -123 25 -289 149 -413
107 -108 202 -142 406 -143 114 0 136 2 172 21 52 26 73 55 73 101 0 44 -18
63 -113 115 -133 73 -226 157 -213 190 4 11 27 4 99 -30 52 -25 101 -45 108
-45 24 0 178 127 280 231 221 223 462 565 610 864 46 93 63 142 78 220 22 112
41 330 41 478 0 66 4 97 12 97 8 0 9 -49 5 -188 -6 -191 -21 -313 -55 -460
-15 -62 -17 -86 -8 -93 6 -5 56 -39 111 -75 125 -83 242 -182 347 -293 190
-203 363 -476 418 -660 49 -166 139 -318 218 -371 65 -43 110 -41 209 10 168
87 480 346 523 435 44 90 22 178 -52 216 -35 18 -54 21 -122 17 -70 -4 -95
-11 -186 -53 -129 -58 -162 -63 -214 -33 -57 34 -65 52 -37 82 22 23 23 31 17
88 -30 261 -154 629 -342 1008 -156 315 -350 635 -463 762 -28 31 -51 59 -51
62 0 3 18 22 39 41 87 79 90 144 13 263 -48 74 -72 132 -72 178 0 20 7 21 113
27 126 7 218 28 260 58 19 14 50 22 93 25 35 3 88 12 117 20 28 9 80 18 113
21 l61 5 17 -48 c19 -55 20 -97 5 -126 -13 -24 -67 -48 -108 -48 -51 0 -155
39 -205 78 -27 20 -55 41 -62 47 -9 6 -17 6 -26 -3 -19 -19 44 -77 131 -120
120 -59 241 -56 295 8 33 40 40 93 21 155 -8 28 -15 53 -15 56 0 4 125 10 278
14 294 7 349 13 344 35 -2 8 4 20 13 26 10 7 60 152 126 359 60 190 109 348
109 349 0 2 -59 62 -132 132 -73 71 -193 188 -268 261 -156 152 -182 174 -197
165 -5 -4 -38 -59 -71 -122 -75 -141 -229 -439 -280 -537 -20 -40 -40 -73 -44
-73 -4 0 -20 24 -34 53 -50 100 -120 167 -174 167 -33 0 -23 -27 20 -51 45
-25 97 -95 134 -180 30 -70 23 -82 -52 -98 -86 -18 -108 -15 -131 18 -25 34
-26 41 -8 41 46 0 63 86 23 117 -13 10 -32 39 -43 64 -28 62 -80 119 -130 141
-24 10 -43 26 -43 34 0 8 18 49 40 90 22 42 40 88 40 103 0 21 10 34 44 58 51
36 136 139 136 166 0 33 -35 16 -69 -34 -68 -99 -165 -154 -265 -147 -76 5
-126 29 -190 90 -55 52 -64 56 -73 32 -4 -10 9 -30 36 -58 l42 -42 -22 -20
c-48 -42 -79 -161 -62 -239 6 -25 15 -41 26 -43 15 -3 17 7 17 80 0 92 21 154
60 181 21 15 26 14 59 -3 49 -25 117 -33 169 -22 23 6 44 6 47 2 2 -4 -15 -45
-39 -92 -23 -46 -45 -93 -48 -105 -3 -13 -17 -22 -37 -26 -38 -8 -126 -63
-163 -103 -56 -61 -68 -143 -23 -160 24 -10 18 -28 -25 -80 -39 -48 -52 -95
-30 -109 22 -14 -1 -20 -65 -17 l-67 4 5 34 c8 48 -10 261 -27 338 -34 144
-96 266 -129 253 -14 -5 -11 -17 23 -84 59 -118 82 -228 89 -423 l6 -165 140
-6 c165 -7 245 -21 339 -57 82 -32 137 -77 165 -135 36 -73 25 -142 -31 -194
-107 -100 -565 -85 -789 27 -169 83 -310 245 -373 425 -47 135 -59 232 -53
433 5 170 4 182 -13 182 -21 0 -27 -25 -36 -165 -19 -294 78 -600 240 -754 43
-41 44 -50 10 -75 -147 -106 -370 -189 -534 -198 l-55 -3 3 55 c11 187 114
602 218 883 48 129 52 147 28 147 -48 0 -213 -543 -269 -884 -14 -82 -27 -152
-30 -155 -15 -14 -91 108 -121 192 -64 180 -20 516 104 797 28 66 104 162 175
223 99 85 91 81 131 62 19 -9 40 -14 45 -10 20 12 11 33 -19 45 -34 14 -36 20
-15 60 19 36 62 70 89 70 25 0 96 -55 96 -74 0 -7 -11 -23 -24 -35 -23 -22
-25 -51 -4 -51 6 0 34 22 64 49 121 111 252 142 347 81 51 -32 95 -87 135
-167 25 -51 44 -65 57 -42 12 18 -55 137 -111 198 -49 53 -52 60 -37 72 9 8
31 37 49 64 31 49 33 51 72 47 93 -9 123 20 244 228 49 85 56 103 62 170 7 85
23 114 71 137 28 13 39 14 60 5 33 -15 64 -83 65 -139 0 -23 5 -45 10 -48 6
-3 37 10 70 31 57 35 140 64 184 64 40 0 102 -39 124 -79 39 -69 30 -116 -48
-231 -20 -30 -42 -70 -48 -89 -24 -70 -5 -182 32 -189 17 -4 18 0 10 45 -17
98 -11 125 50 219 31 48 56 90 56 93 0 3 71 6 157 6 179 0 211 9 240 69 22 46
11 82 -40 131 -44 42 -98 63 -213 85 l-62 12 -17 66 c-53 194 -183 342 -355
403 -32 11 -49 24 -59 45 -23 49 -52 74 -86 74 -20 0 -39 -8 -52 -22z m87 -48
c0 -19 -6 -23 -37 -26 -27 -2 -33 1 -33 16 0 25 29 41 52 29 10 -5 18 -14 18
-19z m88 -88 c110 -35 202 -110 267 -217 35 -59 82 -191 72 -201 -3 -3 -45 -1
-94 5 -48 6 -154 11 -234 11 -117 0 -149 3 -159 15 -15 18 -71 29 -105 21 -14
-4 -42 -22 -63 -40 -33 -29 -46 -34 -112 -40 -41 -4 -99 -15 -128 -25 -29 -10
-55 -15 -57 -11 -9 15 46 185 78 240 17 30 56 80 86 111 132 132 293 179 449
131z m517 -502 c101 -25 149 -61 153 -114 3 -33 0 -38 -32 -51 -48 -20 -306
-22 -306 -2 0 38 -34 118 -65 154 -19 23 -35 45 -35 51 0 12 180 -12 285 -38z
m-1751 -525 c39 -19 113 -92 103 -102 -4 -3 -22 7 -40 24 -43 41 -69 53 -111
53 -42 0 -106 -51 -126 -100 -9 -21 -19 -30 -36 -30 -49 0 -38 35 32 106 62
61 119 77 178 49z m2224 -376 c217 -208 261 -255 256 -273 -24 -96 -194 -611
-202 -614 -6 -2 -142 74 -303 167 -161 94 -301 171 -311 171 -46 0 -6 -36 130
-116 209 -123 212 -125 212 -130 0 -3 -3 -3 -7 -1 -5 2 -88 50 -186 107 -161
93 -207 111 -207 81 0 -14 31 -34 315 -197 l260 -149 -45 -7 c-25 -3 -100 -7
-168 -7 l-122 -1 6 25 c5 19 -1 31 -23 53 -26 26 -36 29 -123 35 -52 4 -98 11
-103 16 -5 5 3 20 17 36 30 32 32 51 9 77 -22 24 -54 23 -153 -7 -47 -14 -115
-28 -152 -32 -57 -5 -71 -3 -88 12 -11 10 -20 22 -20 26 0 4 61 22 136 40 129
31 161 47 138 69 -5 5 -81 -9 -174 -31 l-164 -40 -48 18 c-26 9 -48 20 -48 24
0 3 46 14 103 23 56 10 163 30 236 44 l135 27 210 403 c115 221 213 402 216
402 3 0 124 -113 268 -251z m-2479 182 c10 -7 -5 -26 -63 -81 -126 -120 -187
-229 -249 -445 -99 -340 -69 -627 84 -798 53 -60 57 -67 34 -67 -37 0 -130 53
-178 103 -97 99 -145 237 -154 443 -7 155 6 260 49 394 79 249 211 412 363
450 42 11 98 11 114 1z m-489 -343 c-86 -222 -108 -454 -64 -676 8 -40 24 -93
34 -118 11 -25 20 -50 20 -55 0 -14 -90 34 -146 78 -70 56 -106 127 -112 221
-8 126 36 350 89 454 40 78 140 166 190 168 15 0 13 -10 -11 -72z m1897 -38
c45 -27 69 -66 53 -85 -14 -16 -3 -37 33 -63 55 -41 72 -61 61 -72 -8 -8 -32
0 -88 30 -67 35 -77 38 -83 24 -6 -16 11 -36 51 -62 15 -9 99 -123 94 -127 -2
-2 -14 -6 -28 -10 -22 -5 -33 3 -84 60 -106 120 -119 120 -237 10 -44 -41 -89
-75 -99 -75 -11 0 -20 2 -20 4 0 3 25 38 55 78 30 40 55 78 55 85 0 6 -16 17
-35 23 -43 14 -45 34 -6 86 69 96 201 141 278 94z m-43 -312 c25 -29 46 -56
46 -60 0 -15 -180 -48 -259 -47 -47 0 -53 2 -37 12 11 7 53 42 95 79 42 37 84
67 93 68 9 0 37 -24 62 -52z m475 -265 c-8 -9 -33 -25 -56 -35 -46 -20 -51
-29 -29 -47 20 -17 142 -41 209 -41 57 0 97 -12 97 -29 0 -4 -46 -10 -103 -13
-83 -5 -117 -11 -177 -35 -72 -29 -162 -53 -198 -53 -15 0 -17 12 -17 82 0 46
-4 93 -8 105 -7 20 -4 23 30 28 21 4 74 17 118 30 44 12 95 23 114 24 30 1 32
-1 20 -16z m491 -59 c0 -2 -13 2 -30 11 -16 9 -30 18 -30 21 0 2 14 -2 30 -11
17 -9 30 -18 30 -21z m-1751 -173 c32 -26 33 -30 19 -49 -8 -12 -37 -39 -65
-62 -99 -78 -205 -110 -368 -110 -114 0 -155 6 -155 21 0 5 11 9 24 9 83 0
335 103 436 178 30 23 60 41 65 41 6 0 25 -12 44 -28z m168 -83 c34 -13 65
-27 68 -30 4 -4 13 -43 21 -88 15 -85 33 -130 66 -167 l20 -22 -30 -38 c-16
-21 -34 -51 -40 -68 -5 -16 -15 -29 -21 -27 -122 27 -210 34 -366 29 -196 -6
-307 -26 -485 -88 -162 -56 -155 -55 -184 -26 -32 32 -33 67 -3 104 34 42 45
74 57 170 7 48 13 93 15 99 2 8 27 6 82 -8 108 -27 312 -29 403 -4 103 28 185
73 248 137 31 31 64 56 72 54 8 -2 43 -14 77 -27z m250 -55 l61 -6 7 -44 c10
-69 31 -118 80 -192 65 -97 58 -154 -28 -221 -33 -26 -37 -25 -105 9 -31 15
-74 34 -94 40 -34 11 -36 14 -27 38 5 14 23 43 39 63 38 47 38 69 0 122 -29
42 -60 138 -60 186 0 22 3 24 33 18 17 -4 60 -10 94 -13z m1508 -2487 c39 -17
55 -42 55 -87 0 -36 -36 -118 -54 -125 -7 -3 -30 12 -52 32 -76 72 -168 92
-249 55 -22 -10 -73 -44 -112 -75 -92 -72 -130 -88 -173 -76 -18 5 -44 20 -58
32 -28 26 -82 106 -82 122 0 12 114 106 128 106 5 0 17 -9 28 -21 10 -12 37
-30 58 -41 57 -29 123 -20 243 35 54 25 107 47 118 50 41 10 117 6 150 -7z
m-3152 -46 l20 -36 -36 -50 c-20 -28 -44 -67 -52 -87 -19 -46 -19 -129 -1
-165 21 -40 192 -204 281 -269 17 -12 27 -24 24 -28 -10 -10 -148 23 -198 47
-90 43 -191 168 -230 286 -41 120 -25 180 70 275 40 40 75 67 85 65 9 -2 25
-19 37 -38z m121 -146 c70 -66 71 -67 67 -112 -3 -43 -1 -46 56 -101 33 -31
98 -78 144 -105 135 -78 131 -75 127 -103 -5 -41 -49 -66 -123 -71 l-65 -4
-97 78 c-127 103 -241 211 -259 246 -17 32 -18 76 -4 115 11 27 71 123 79 123
1 0 35 -30 75 -66z m2301 -14 c54 -83 102 -115 174 -115 60 0 69 5 204 110 73
56 123 72 176 57 35 -11 131 -84 131 -101 0 -11 -152 -139 -257 -215 -104 -76
-232 -146 -267 -146 -54 0 -139 87 -197 202 -33 65 -83 208 -75 215 3 3 20 16
38 29 18 13 33 23 34 24 0 0 18 -27 39 -60z"/>
<path d="M3310 4321 c0 -83 34 -122 85 -95 15 8 28 13 29 12 17 -46 35 -63 64
-61 25 2 31 -1 34 -19 2 -13 11 -24 21 -26 14 -3 17 5 17 51 0 59 -15 76 -50
57 -29 -16 -37 -12 -44 20 -7 39 -31 48 -69 26 -16 -9 -31 -15 -33 -13 -2 2
-7 21 -12 43 -5 24 -14 40 -25 42 -14 3 -17 -4 -17 -37z"/>
<path d="M841 4675 c-30 -41 -36 -75 -13 -75 14 0 82 86 82 104 0 30 -35 15
-69 -29z"/>
<path d="M730 4513 c-32 -51 -35 -76 -9 -81 16 -3 69 82 69 112 0 31 -30 15
-60 -31z"/>
<path d="M641 4329 c-24 -55 -24 -84 -1 -84 17 0 64 110 55 125 -14 22 -34 7
-54 -41z"/>
<path d="M591 4172 c-5 -10 -13 -42 -17 -70 -6 -48 -5 -52 15 -52 23 0 31 20
34 89 2 47 -15 65 -32 33z"/>
<path d="M567 3984 c-11 -12 -8 -132 4 -140 23 -14 36 20 30 80 -6 55 -18 76
-34 60z"/>
<path d="M575 3771 c-5 -9 2 -47 21 -113 6 -19 29 -24 38 -9 11 17 -20 126
-36 129 -9 2 -19 -2 -23 -7z"/>
<path d="M633 3574 c-7 -19 25 -85 44 -92 22 -7 25 24 6 64 -20 43 -40 54 -50
28z"/>
<path d="M434 4355 c-25 -55 -25 -75 1 -75 15 0 68 107 59 121 -14 23 -37 5
-60 -46z"/>
<path d="M369 4166 c-12 -55 -8 -86 11 -86 13 0 26 34 35 93 7 43 5 47 -13 47
-17 0 -23 -10 -33 -54z"/>
<path d="M347 4014 c-4 -4 -7 -34 -7 -66 0 -44 4 -60 15 -65 22 -8 23 -5 27
67 2 52 0 65 -12 67 -9 2 -19 1 -23 -3z"/>
<path d="M357 3813 c-13 -12 -7 -54 9 -60 23 -8 36 10 28 41 -6 25 -23 34 -37
19z"/>
<path d="M2253 5502 c-17 -11 -33 -58 -33 -97 0 -23 -16 -60 -52 -117 -102
-164 -186 -371 -219 -543 -21 -107 -18 -351 5 -453 21 -92 34 -116 55 -103 11
7 11 19 -3 72 -84 338 -1 705 241 1067 36 53 74 106 84 118 11 11 19 25 19 32
0 25 -69 42 -97 24z"/>
<path d="M2594 5305 c-31 -31 -29 -69 3 -73 30 -4 63 31 63 68 0 39 -30 41
-66 5z"/>
<path d="M2250 5048 c0 -53 32 -131 72 -174 22 -24 46 -44 54 -44 28 0 25 23
-9 58 -44 47 -57 73 -66 131 -5 38 -10 47 -29 49 -17 3 -22 -1 -22 -20z"/>
</g>
</svg>
